<?xml version="1.0" encoding="UTF-8" standalone="no"?>
<!-- Created with Inkscape (http://www.inkscape.org/) -->
<svg
   xmlns:svg="http://www.w3.org/2000/svg"
   xmlns="http://www.w3.org/2000/svg"
   version="1.0"
   width="50"
   height="50"
   id="svg8897">
  <defs
     id="defs8899" />
  <g
     transform="matrix(0.1376536,0,0,0.1376543,-83.169458,-43.279839)"
     id="g2297">
    <path
       d="M 460 310 A 170 170 0 1 1  120,310 A 170 170 0 1 1  460 310 z"
       transform="translate(495.80915,186.02402)"
       style="fill:none;fill-opacity:1;stroke:#000000;stroke-width:1;stroke-linejoin:miter;stroke-miterlimit:4;stroke-dasharray:none;stroke-opacity:1"
       id="path5170" />
    <path
       d="M 815.80915,516.02402 L 805.80915,526.02402 L 805.80915,596.02402 L 765.80915,596.02402 L 765.80915,526.02402 L 755.80915,516.02402 L 685.80915,516.02402 L 685.80915,476.02402 L 755.80915,476.02402 L 765.80915,466.02402 L 765.80915,396.02402 L 805.80915,396.02402 L 805.80915,466.02402 L 815.80915,476.02402 L 885.80915,476.02402 L 885.80915,516.02402 L 815.80915,516.02402 z "
       style="fill:#000000;fill-opacity:1;stroke:#000000;stroke-width:1;stroke-linejoin:miter;stroke-miterlimit:4;stroke-opacity:1"
       id="path7825" />
  </g>
</svg>
