<?xml version="1.0" encoding="UTF-8"?>
<svg id="SVGDoc" width="185" height="22" xmlns="http://www.w3.org/2000/svg" version="1.1" xmlns:xlink="http://www.w3.org/1999/xlink" xmlns:avocode="https://avocode.com/" viewBox="0 0 185 22"><defs></defs><desc>Generated with Avocode.</desc><g><g><title>logo</title><path d="M31.92922,19.69915v-16.82551h5.56839v16.82551zM56.38589,19.69915l-6.62457,-8.59263v8.59263h-5.06448v-16.82551h4.65641l6.64843,8.64096v-8.64096h5.04063v16.82551zM77.50533,7.2661v12.43305h-5.56839v-12.43305h-4.7765v-4.39246h15.14517v4.39246zM93.99287,7.09797v2.06452h7.87258v4.22399h-7.87258v2.08834h8.88064v4.22433h-14.44903v-16.82551h14.23286v4.22433zM117.44076,15.33085h-2.08842v4.3683h-5.56839v-16.82551h8.13678c4.56033,0 7.17644,2.18432 7.17644,6.02474c0,2.44808 -0.93576,4.27232 -2.66422,5.3284l3.31233,5.47237h-6.28839zM117.92073,11.10652c1.19997,0 1.89611,-0.74399 1.89611,-2.04035c0,-1.24804 -0.69614,-1.9682 -1.89611,-1.9682h-2.56839v4.00855zM131.98374,19.69915v-16.82551h5.56839v16.82551zM162.39295,11.27431c0,4.99282 -3.88837,8.66512 -9.24059,8.66512c-5.35263,0 -9.241,-3.64847 -9.241,-8.66512c0,-4.99248 3.88837,-8.56846 9.241,-8.56846c5.35222,0 9.24059,3.60014 9.24059,8.56846zM149.62394,11.29847c0,2.30446 1.68002,4.00855 3.60031,4.00855c1.91996,0 3.45611,-1.7041 3.45611,-4.00855c0,-2.30446 -1.53615,-3.96023 -3.45611,-3.96023c-1.94415,0 -3.60031,1.65577 -3.60031,3.96023zM176.40793,15.33085h-2.08842v4.3683h-5.56839v-16.82551h8.13678c4.56033,0 7.17644,2.18432 7.17644,6.02474c0,2.44808 -0.93609,4.27232 -2.66414,5.3284l3.31224,5.47237h-6.28839zM176.8879,11.10652c1.19997,0 1.89611,-0.74399 1.89611,-2.04035c0,-1.24804 -0.69614,-1.9682 -1.89611,-1.9682h-2.56839v4.00855zM0.24985,0.84383h9.18751v9.18721h-9.18751zM21.25001,0.84383v9.18721h-9.18751v-9.18721zM12.0625,12.6561h9.18751v9.18755h-9.18751zM0.24985,12.6561h9.18751v9.18755h-9.18751z" fill="#212121" fill-opacity="1"></path></g></g></svg>